<svg width="1000" height="704" viewBox="0 0 1000 704" xmlns="http://www.w3.org/2000/svg">
      <defs>
        <marker id="arrow" markerWidth="9" markerHeight="7" refX="8" refY="3.5" orient="auto"><polygon points="0 0, 9 3.5, 0 7" fill="#7e7e7e"/></marker>
        <marker id="arrow-accent" markerWidth="9" markerHeight="7" refX="8" refY="3.5" orient="auto"><polygon points="0 0, 9 3.5, 0 7" fill="#5b87c7"/></marker>
      </defs>

      <rect width="100%" height="100%" fill="#151515"/>

      <line x1="32" y1="64" x2="968" y2="64" stroke="rgba(214,214,214,0.12)" stroke-width="1"/>
      <line x1="32" y1="224" x2="968" y2="224" stroke="rgba(214,214,214,0.12)" stroke-width="1"/>
      <line x1="32" y1="384" x2="968" y2="384" stroke="rgba(214,214,214,0.12)" stroke-width="1"/>
      <line x1="32" y1="544" x2="968" y2="544" stroke="rgba(214,214,214,0.12)" stroke-width="1"/>
      <rect x="128" y="224" width="840" height="160" fill="rgba(214,214,214,0.02)"/>
      <line x1="128" y1="64" x2="128" y2="544" stroke="rgba(214,214,214,0.18)" stroke-width="1"/>
      <text x="80" y="150" fill="#7e7e7e" font-size="12" font-family="'Geist Mono', monospace" text-anchor="middle" letter-spacing="0.08em">APP</text>
      <text x="80" y="310" fill="#7e7e7e" font-size="12" font-family="'Geist Mono', monospace" text-anchor="middle" letter-spacing="0.08em">MODEL</text>
      <text x="80" y="470" fill="#7e7e7e" font-size="12" font-family="'Geist Mono', monospace" text-anchor="middle" letter-spacing="0.08em">YOU</text>
      <path d="M 328,144 H 440 Q 448,144 448,152 V 256" fill="none" stroke="#7e7e7e" stroke-width="2" marker-end="url(#arrow)"/>
      <path d="M 544,304 H 656 Q 664,304 664,312 V 416" fill="none" stroke="#7e7e7e" stroke-width="2" marker-end="url(#arrow)"/>
      <path d="M 760,464 H 872 Q 880,464 880,456 V 192" fill="none" stroke="#5b87c7" stroke-width="2" marker-end="url(#arrow-accent)"/>
      <rect x="736" y="320" width="136" height="16" rx="2" fill="#151515"/>
      <text x="804" y="332" fill="#5b87c7" font-size="12" font-family="'Geist Mono', monospace" text-anchor="middle">YOU APPROVED IT</text>
      <rect x="152" y="96" width="176" height="96" rx="4" fill="#1e1e1e" stroke="#383838" stroke-width="1.5"/>
      <text x="240" y="140" fill="#d6d6d6" font-size="16" font-weight="600" font-family="'Geist', sans-serif" text-anchor="middle">Find candidates</text>
      <text x="240" y="164" fill="#a9a9a9" font-size="12" font-family="'Geist Mono', monospace" text-anchor="middle">density · clusters</text>
      <rect x="368" y="256" width="176" height="96" rx="4" fill="rgba(91,135,199,0.15)" stroke="#5b87c7" stroke-width="1.5"/>
      <text x="456" y="300" fill="#d6d6d6" font-size="16" font-weight="600" font-family="'Geist', sans-serif" text-anchor="middle">Judge each one</text>
      <text x="456" y="324" fill="#a9a9a9" font-size="12" font-family="'Geist Mono', monospace" text-anchor="middle">junk? structure?</text>
      <rect x="584" y="416" width="176" height="96" rx="4" fill="#1e1e1e" stroke="#383838" stroke-width="1.5"/>
      <text x="672" y="460" fill="#d6d6d6" font-size="16" font-weight="600" font-family="'Geist', sans-serif" text-anchor="middle">Review the batch</text>
      <text x="672" y="484" fill="#a9a9a9" font-size="12" font-family="'Geist Mono', monospace" text-anchor="middle">one card, all rows</text>
      <rect x="800" y="96" width="176" height="96" rx="4" fill="#1e1e1e" stroke="#383838" stroke-width="1.5"/>
      <text x="888" y="140" fill="#d6d6d6" font-size="16" font-weight="600" font-family="'Geist', sans-serif" text-anchor="middle">Delete + verify</text>
      <text x="888" y="164" fill="#a9a9a9" font-size="12" font-family="'Geist Mono', monospace" text-anchor="middle">only what you ok’d</text>
      <text x="32" y="592" fill="#a9a9a9" font-size="17" font-style="italic" font-family="'Instrument Serif', serif">Statistics propose. The model judges. You sign. A failed model call keeps the cluster.</text>
      <line x1="32" y1="616" x2="968" y2="616" stroke="rgba(214,214,214,0.12)" stroke-width="1"/>
      <rect x="32" y="644" width="16" height="12" rx="2" fill="#1e1e1e" stroke="#383838" stroke-width="1.5"/>
      <text x="60" y="654" fill="#a9a9a9" font-size="12" font-family="'Geist', sans-serif">The app computes it</text>
      <rect x="225" y="644" width="16" height="12" rx="2" fill="rgba(91,135,199,0.15)" stroke="#5b87c7" stroke-width="1.5"/>
      <text x="253" y="654" fill="#a9a9a9" font-size="12" font-family="'Geist', sans-serif">The one question the model answers</text>
      <line x1="517" y1="650" x2="549" y2="650" stroke="#5b87c7" stroke-width="2" marker-end="url(#arrow-accent)"/>
      <text x="565" y="654" fill="#a9a9a9" font-size="12" font-family="'Geist', sans-serif">The only path that deletes</text>
    </svg>
