<svg width="960" height="544" viewBox="0 0 960 544" xmlns="http://www.w3.org/2000/svg">
      <defs>
        <marker id="arrow" markerWidth="9" markerHeight="7" refX="8" refY="3.5" orient="auto"><polygon points="0 0, 9 3.5, 0 7" fill="#7e7e7e"/></marker>
        <marker id="arrow-accent" markerWidth="9" markerHeight="7" refX="8" refY="3.5" orient="auto"><polygon points="0 0, 9 3.5, 0 7" fill="#5b87c7"/></marker>
      </defs>

      <rect width="100%" height="100%" fill="#151515"/>

      <rect x="48" y="48" width="864" height="320" rx="4" fill="rgba(214,214,214,0.02)" stroke="#383838" stroke-width="1.5"/>
      <rect x="96" y="42" width="212" height="16" rx="2" fill="#151515"/>
      <text x="104" y="54" fill="#7e7e7e" font-size="12" font-family="'Geist Mono', monospace" letter-spacing="0.12em">EVERY TOOL THE APP HAS</text>
      <text x="104" y="344" fill="#7e7e7e" font-size="12" font-family="'Geist Mono', monospace">40 tools · one registry, mirrored in python and typescript</text>
      <rect x="96" y="96" width="768" height="224" rx="4" fill="#1e1e1e" stroke="#474747" stroke-width="1.5"/>
      <rect x="144" y="90" width="168" height="16" rx="2" fill="#151515"/>
      <text x="152" y="102" fill="#a9a9a9" font-size="12" font-family="'Geist Mono', monospace" letter-spacing="0.12em">CLEAN — THE EDITOR</text>
      <text x="152" y="296" fill="#a9a9a9" font-size="12" font-family="'Geist Mono', monospace">brush · lasso · volumes · delete · keep · undo · propose</text>
      <rect x="144" y="144" width="672" height="128" rx="4" fill="rgba(91,135,199,0.15)" stroke="#5b87c7" stroke-width="1.5"/>
      <rect x="192" y="138" width="232" height="16" rx="2" fill="#151515"/>
      <text x="200" y="150" fill="#5b87c7" font-size="12" font-family="'Geist Mono', monospace" letter-spacing="0.12em">UNDERSTAND — THE ANALYST</text>
      <text x="480" y="196" fill="#d6d6d6" font-size="20" font-weight="600" font-family="'Geist', sans-serif" text-anchor="middle">Navigate · capture · answer</text>
      <text x="480" y="224" fill="#a9a9a9" font-size="13" font-family="'Geist Mono', monospace" text-anchor="middle">move_camera · capture_view · answer_question</text>
      <text x="480" y="250" fill="#5b87c7" font-size="13" font-family="'Geist Mono', monospace" text-anchor="middle">no edit tools — not in the spec, refused at dispatch</text>
      <text x="48" y="424" fill="#a9a9a9" font-size="17" font-style="italic" font-family="'Instrument Serif', serif">The switch is not a mode flag. It is containment.</text>
      <line x1="48" y1="448" x2="912" y2="448" stroke="rgba(214,214,214,0.12)" stroke-width="1"/>
      <rect x="48" y="476" width="16" height="12" rx="2" fill="#272727" stroke="#2d2d2d" stroke-width="1.5"/>
      <text x="76" y="486" fill="#a9a9a9" font-size="12" font-family="'Geist', sans-serif">Everything the app can do</text>
      <rect x="281" y="476" width="16" height="12" rx="2" fill="#1e1e1e" stroke="#383838" stroke-width="1.5"/>
      <text x="309" y="486" fill="#a9a9a9" font-size="12" font-family="'Geist', sans-serif">What the Cleaner may call</text>
      <rect x="514" y="476" width="16" height="12" rx="2" fill="rgba(91,135,199,0.15)" stroke="#5b87c7" stroke-width="1.5"/>
      <text x="542" y="486" fill="#a9a9a9" font-size="12" font-family="'Geist', sans-serif">What the Analyst may call</text>
    </svg>
