<svg width="1000" height="560" viewBox="0 0 1000 560" xmlns="http://www.w3.org/2000/svg">
      <defs>
        <marker id="arrow" markerWidth="8" markerHeight="6" refX="7" refY="3" orient="auto"><polygon points="0 0, 8 3, 0 6" fill="#5d5d5d"/></marker>
        <marker id="arrow-accent" markerWidth="8" markerHeight="6" refX="7" refY="3" orient="auto"><polygon points="0 0, 8 3, 0 6" fill="#5b87c7"/></marker>
        <marker id="arrow-link" markerWidth="8" markerHeight="6" refX="7" refY="3" orient="auto"><polygon points="0 0, 8 3, 0 6" fill="#8a6d14"/></marker>
      </defs>

      <rect width="100%" height="100%" fill="#faf9f7"/>

      <!-- Zones (before arrows and nodes) -->
      <rect x="40" y="88" width="232" height="248" rx="8" fill="rgba(30,30,30,0.02)" stroke="rgba(30,30,30,0.10)" stroke-width="0.8"/>
      <rect x="64" y="92" width="68" height="12" rx="2" fill="#faf9f7"/>
      <text x="98" y="101" fill="rgba(30,30,30,0.40)" font-size="7" font-family="'Geist Mono', monospace" text-anchor="middle" letter-spacing="0.14em">BROWSER</text>

      <rect x="368" y="88" width="248" height="376" rx="8" fill="rgba(30,30,30,0.02)" stroke="rgba(30,30,30,0.10)" stroke-width="0.8"/>
      <rect x="392" y="92" width="132" height="12" rx="2" fill="#faf9f7"/>
      <text x="458" y="101" fill="rgba(30,30,30,0.40)" font-size="7" font-family="'Geist Mono', monospace" text-anchor="middle" letter-spacing="0.14em">PYTHON BACKEND · CPU</text>

      <!-- Arrows first (behind boxes) -->
      <line x1="392" y1="136" x2="248" y2="136" stroke="#5d5d5d" stroke-width="1.2" marker-end="url(#arrow)"/>
      <line x1="248" y1="168" x2="392" y2="168" stroke="#5d5d5d" stroke-width="1.2" marker-end="url(#arrow)"/>
      <line x1="248" y1="280" x2="392" y2="280" stroke="#5b87c7" stroke-width="1.4" marker-end="url(#arrow-accent)"/>
      <line x1="592" y1="272" x2="736" y2="272" stroke="#8a6d14" stroke-width="1.2" marker-end="url(#arrow-link)"/>
      <line x1="736" y1="296" x2="592" y2="296" stroke="#8a6d14" stroke-width="1" stroke-dasharray="4,3" marker-end="url(#arrow-link)"/>
      <line x1="468" y1="184" x2="468" y2="248" stroke="#5d5d5d" stroke-width="1.2" marker-end="url(#arrow)"/>
      <line x1="516" y1="312" x2="516" y2="376" stroke="#5d5d5d" stroke-width="1.2" marker-end="url(#arrow)"/>

      <!-- Arrow labels (masked, 8px gap) -->
      <rect x="284" y="116" width="72" height="12" rx="2" fill="#faf9f7"/>
      <text x="320" y="125" fill="#5d5d5d" font-size="8" font-family="'Geist Mono', monospace" text-anchor="middle" letter-spacing="0.08em">SCENE · WS</text>

      <rect x="280" y="148" width="80" height="12" rx="2" fill="#faf9f7"/>
      <text x="320" y="157" fill="#5d5d5d" font-size="8" font-family="'Geist Mono', monospace" text-anchor="middle" letter-spacing="0.08em">EDIT · POSE</text>

      <rect x="288" y="260" width="64" height="12" rx="2" fill="#faf9f7"/>
      <text x="320" y="269" fill="#5b87c7" font-size="8" font-family="'Geist Mono', monospace" text-anchor="middle" letter-spacing="0.08em">FRAMES</text>

      <rect x="644" y="252" width="40" height="12" rx="2" fill="#faf9f7"/>
      <text x="664" y="261" fill="#8a6d14" font-size="8" font-family="'Geist Mono', monospace" text-anchor="middle" letter-spacing="0.08em">ASK</text>

      <rect x="632" y="304" width="64" height="12" rx="2" fill="#faf9f7"/>
      <text x="664" y="313" fill="#8a6d14" font-size="8" font-family="'Geist Mono', monospace" text-anchor="middle" letter-spacing="0.08em">VERDICT</text>

      <rect x="476" y="210" width="64" height="12" rx="2" fill="#faf9f7"/>
      <text x="508" y="219" fill="#5d5d5d" font-size="8" font-family="'Geist Mono', monospace" text-anchor="middle" letter-spacing="0.08em">DISPATCH</text>

      <rect x="524" y="338" width="72" height="12" rx="2" fill="#faf9f7"/>
      <text x="560" y="347" fill="#5d5d5d" font-size="8" font-family="'Geist Mono', monospace" text-anchor="middle" letter-spacing="0.08em">APPLY IDS</text>

      <!-- Node: Viewport -->
      <rect x="64" y="120" width="184" height="64" rx="6" fill="#faf9f7"/>
      <rect x="64" y="120" width="184" height="64" rx="6" fill="rgba(93,93,93,0.10)" stroke="#7e7e7e" stroke-width="1"/>
      <rect x="72" y="128" width="32" height="12" rx="2" fill="transparent" stroke="rgba(126,126,126,0.40)" stroke-width="0.8"/>
      <text x="88" y="137" fill="#7e7e7e" font-size="7" font-family="'Geist Mono', monospace" text-anchor="middle" letter-spacing="0.08em">VIEW</text>
      <text x="156" y="156" fill="#1e1e1e" font-size="12" font-weight="600" font-family="'Geist', sans-serif" text-anchor="middle">Viewport</text>
      <text x="156" y="172" fill="#5d5d5d" font-size="9" font-family="'Geist Mono', monospace" text-anchor="middle">SparkJS · WebGL</text>

      <!-- Node: Frame capture -->
      <rect x="64" y="248" width="184" height="64" rx="6" fill="#faf9f7"/>
      <rect x="64" y="248" width="184" height="64" rx="6" fill="rgba(93,93,93,0.10)" stroke="#7e7e7e" stroke-width="1"/>
      <rect x="72" y="256" width="32" height="12" rx="2" fill="transparent" stroke="rgba(126,126,126,0.40)" stroke-width="0.8"/>
      <text x="88" y="265" fill="#7e7e7e" font-size="7" font-family="'Geist Mono', monospace" text-anchor="middle" letter-spacing="0.08em">EYES</text>
      <text x="156" y="284" fill="#1e1e1e" font-size="12" font-weight="600" font-family="'Geist', sans-serif" text-anchor="middle">Frame capture</text>
      <text x="156" y="300" fill="#5d5d5d" font-size="9" font-family="'Geist Mono', monospace" text-anchor="middle">canvas → png</text>

      <!-- Node: API -->
      <rect x="392" y="120" width="200" height="64" rx="6" fill="#faf9f7"/>
      <rect x="392" y="120" width="200" height="64" rx="6" fill="#ffffff" stroke="#1e1e1e" stroke-width="1"/>
      <rect x="400" y="128" width="28" height="12" rx="2" fill="transparent" stroke="rgba(30,30,30,0.40)" stroke-width="0.8"/>
      <text x="414" y="137" fill="#1e1e1e" font-size="7" font-family="'Geist Mono', monospace" text-anchor="middle" letter-spacing="0.08em">API</text>
      <text x="492" y="156" fill="#1e1e1e" font-size="12" font-weight="600" font-family="'Geist', sans-serif" text-anchor="middle">FastAPI server</text>
      <text x="492" y="172" fill="#5d5d5d" font-size="9" font-family="'Geist Mono', monospace" text-anchor="middle">rest + websocket</text>

      <!-- Node: Agent loop (focal) -->
      <rect x="392" y="248" width="200" height="64" rx="6" fill="#faf9f7"/>
      <rect x="392" y="248" width="200" height="64" rx="6" fill="rgba(91,135,199,0.10)" stroke="#5b87c7" stroke-width="1"/>
      <rect x="400" y="256" width="32" height="12" rx="2" fill="transparent" stroke="rgba(91,135,199,0.50)" stroke-width="0.8"/>
      <text x="416" y="265" fill="#5b87c7" font-size="7" font-family="'Geist Mono', monospace" text-anchor="middle" letter-spacing="0.08em">LOOP</text>
      <text x="492" y="284" fill="#1e1e1e" font-size="12" font-weight="600" font-family="'Geist', sans-serif" text-anchor="middle">Agent loop</text>
      <text x="492" y="300" fill="#5d5d5d" font-size="9" font-family="'Geist Mono', monospace" text-anchor="middle">perceive → act → verify</text>

      <!-- Node: Splat store -->
      <rect x="392" y="376" width="200" height="64" rx="6" fill="#faf9f7"/>
      <rect x="392" y="376" width="200" height="64" rx="6" fill="rgba(30,30,30,0.05)" stroke="#5d5d5d" stroke-width="1"/>
      <rect x="400" y="384" width="32" height="12" rx="2" fill="transparent" stroke="rgba(93,93,93,0.50)" stroke-width="0.8"/>
      <text x="416" y="393" fill="#5d5d5d" font-size="7" font-family="'Geist Mono', monospace" text-anchor="middle" letter-spacing="0.08em">DATA</text>
      <text x="492" y="412" fill="#1e1e1e" font-size="12" font-weight="600" font-family="'Geist', sans-serif" text-anchor="middle">Splat store</text>
      <text x="492" y="428" fill="#5d5d5d" font-size="9" font-family="'Geist Mono', monospace" text-anchor="middle">numpy · ids · history</text>

      <!-- Node: Vision model -->
      <rect x="736" y="248" width="200" height="64" rx="6" fill="#faf9f7"/>
      <rect x="736" y="248" width="200" height="64" rx="6" fill="rgba(30,30,30,0.03)" stroke="rgba(30,30,30,0.30)" stroke-width="1"/>
      <rect x="744" y="256" width="28" height="12" rx="2" fill="transparent" stroke="rgba(30,30,30,0.22)" stroke-width="0.8"/>
      <text x="758" y="265" fill="#7e7e7e" font-size="7" font-family="'Geist Mono', monospace" text-anchor="middle" letter-spacing="0.08em">VLM</text>
      <text x="836" y="284" fill="#1e1e1e" font-size="12" font-weight="600" font-family="'Geist', sans-serif" text-anchor="middle">Vision model</text>
      <text x="836" y="300" fill="#5d5d5d" font-size="9" font-family="'Geist Mono', monospace" text-anchor="middle">gemini · vllm · api</text>

      <!-- Legend -->
      <line x1="40" y1="488" x2="960" y2="488" stroke="rgba(30,30,30,0.10)" stroke-width="0.8"/>
      <text x="40" y="504" fill="#5d5d5d" font-size="8" font-family="'Geist Mono', monospace" letter-spacing="0.18em">LEGEND</text>

      <rect x="40" y="520" width="14" height="10" rx="2" fill="rgba(91,135,199,0.10)" stroke="#5b87c7" stroke-width="1"/>
      <text x="60" y="528" fill="#5d5d5d" font-size="8.5" font-family="'Geist', sans-serif">Focal · agent loop</text>

      <rect x="196" y="520" width="14" height="10" rx="2" fill="#ffffff" stroke="#1e1e1e" stroke-width="1"/>
      <text x="216" y="528" fill="#5d5d5d" font-size="8.5" font-family="'Geist', sans-serif">Backend service</text>

      <rect x="344" y="520" width="14" height="10" rx="2" fill="rgba(30,30,30,0.05)" stroke="#5d5d5d" stroke-width="1"/>
      <text x="364" y="528" fill="#5d5d5d" font-size="8.5" font-family="'Geist', sans-serif">Data + history</text>

      <rect x="488" y="520" width="14" height="10" rx="2" fill="rgba(93,93,93,0.10)" stroke="#7e7e7e" stroke-width="1"/>
      <text x="508" y="528" fill="#5d5d5d" font-size="8.5" font-family="'Geist', sans-serif">Browser surface</text>

      <line x1="636" y1="526" x2="664" y2="526" stroke="#5b87c7" stroke-width="1.4" marker-end="url(#arrow-accent)"/>
      <text x="672" y="528" fill="#5d5d5d" font-size="8.5" font-family="'Geist', sans-serif">What the model sees</text>

      <line x1="828" y1="526" x2="856" y2="526" stroke="#8a6d14" stroke-width="1" stroke-dasharray="4,3" marker-end="url(#arrow-link)"/>
      <text x="864" y="528" fill="#5d5d5d" font-size="8.5" font-family="'Geist', sans-serif">Model reply</text>
    </svg>
